# xmcd
#
# Track frame offsets: 
#        183
#        21515
#        33263
#        43598
#        60398
#        74660
#        81233
#        94798
#        105968
#        120005
#        136593
#        160945
#
# Disc length: 2314 seconds
#
# Revision: 4
# Processed by: cddbd v1.5.1PL0 Copyright (c) Steve Scherf et al.
# Submitted via: ExactAudioCopy v0.95a5
#
DISCID=8e09080c
DTITLE=John Denver - Back Home Again
DYEAR=1974
DGENRE=Country
TTITLE0=Back Home Again
TTITLE1=On The Road
TTITLE2=Grandma's Feather Bed
TTITLE3=Matthew
TTITLE4=Thank God I'm A Country Boy
TTITLE5=The Music is You
TTITLE6=Annie's Song
TTITLE7=It's Up To You
TTITLE8=Cool An' Green An' Shady
TTITLE9=Eclipse
TTITLE10=Sweet Surrender
TTITLE11=This Old Guitar
EXTD=
EXTT0=
EXTT1=
EXTT2=
EXTT3=
EXTT4=
EXTT5=
EXTT6=
EXTT7=
EXTT8=
EXTT9=
EXTT10=
EXTT11=
PLAYORDER=
